<?xml version="1.0" standalone="no"?>
<!DOCTYPE svg PUBLIC "-//W3C//DTD SVG 20010904//EN"
 "http://www.w3.org/TR/2001/REC-SVG-20010904/DTD/svg10.dtd">
<svg version="1.0" xmlns="http://www.w3.org/2000/svg"
 width="424.000000pt" height="341.000000pt" viewBox="0 0 424.000000 341.000000"
 preserveAspectRatio="xMidYMid meet">

<g transform="translate(0.000000,341.000000) scale(0.100000,-0.100000)"
fill="#000000" stroke="none">
<path d="M2264 3090 c-398 -39 -781 -225 -972 -473 -140 -181 -217 -385 -229
-608 -13 -254 54 -462 198 -609 274 -280 749 -398 1146 -285 185 53 380 173
488 300 135 157 214 366 231 608 21 292 -115 566 -335 675 -74 36 -77 37 -195
37 -92 0 -134 -5 -176 -19 -153 -52 -258 -134 -311 -242 l-31 -62 -61 25 c-76
30 -190 40 -269 24 -112 -24 -240 -107 -294 -192 -117 -186 -66 -505 109 -681
153 -154 361 -225 682 -235 193 -6 312 6 332 33 17 23 16 29 -1 47 -12 12 -47
13 -198 9 -112 -3 -217 0 -270 7 -412 55 -628 256 -628 586 0 76 4 95 30 150
47 99 133 160 268 191 61 14 75 14 135 0 36 -9 87 -25 112 -37 43 -20 45 -23
45 -63 0 -72 28 -146 71 -190 37 -36 42 -38 86 -33 37 4 54 12 76 37 25 28 28
39 24 71 -6 48 -64 129 -123 171 -35 25 -43 36 -38 52 44 141 174 235 369 266
207 33 393 -110 481 -370 29 -85 27 -323 -4 -445 -30 -118 -108 -274 -174
-351 -244 -279 -643 -387 -1049 -284 -246 63 -477 225 -561 395 -64 128 -73
170 -72 360 0 154 3 178 27 256 36 119 67 185 132 285 163 250 472 429 855
495 100 17 385 18 475 1 377 -72 612 -256 736 -577 178 -459 12 -950 -441
-1304 -104 -82 -314 -173 -489 -211 -46 -10 -87 -23 -90 -28 -3 -5 -58 -76
-121 -157 l-115 -148 -5 192 c-4 156 -8 194 -20 201 -21 14 -28 12 -50 -10
-19 -19 -20 -33 -20 -325 0 -168 3 -305 8 -305 5 1 305 380 364 463 8 10 46
25 96 37 105 25 256 81 352 131 99 52 190 121 299 229 310 305 446 700 371
1071 -92 448 -379 732 -830 819 -117 23 -304 31 -426 20z m-28 -923 c6 -20
-13 -40 -29 -30 -12 7 -46 84 -47 102 0 19 68 -46 76 -72z"/>
<path d="M2528 2515 c-16 -36 3 -52 82 -71 35 -8 78 -24 96 -35 40 -24 74 -13
74 25 0 33 -40 65 -110 87 -88 27 -127 25 -142 -6z"/>
<path d="M798 2343 c-9 -10 -23 -47 -31 -83 -32 -133 -39 -217 -35 -381 4
-136 10 -181 32 -264 29 -108 94 -255 146 -330 91 -133 260 -276 413 -350 175
-84 267 -102 282 -55 13 40 -3 58 -73 81 -80 26 -226 97 -288 140 -198 136
-317 306 -381 545 -24 89 -26 117 -27 274 0 144 4 193 22 277 27 124 27 140 3
153 -28 14 -46 12 -63 -7z"/>
<path d="M2786 2288 c-14 -8 -16 -30 -16 -153 0 -192 -31 -336 -102 -478 -31
-63 -33 -94 -5 -111 27 -17 48 2 88 83 75 149 109 303 109 486 0 68 -4 135 -9
148 -11 27 -40 39 -65 25z"/>
</g>
</svg>
